<svg width="1042" height="68" viewBox="0 0 1042 68" fill="none" xmlns="http://www.w3.org/2000/svg">
<path d="M0.982955 0.63685H13.3835L25.3239 23.188H25.8352L37.7756 0.63685H50.1761L31.0767 34.4891V53.0005H20.0824V34.4891L0.982955 0.63685ZM64.0962 53.7675C60.1246 53.7675 56.69 52.9238 53.7922 51.2363C50.9116 49.5317 48.6871 47.1624 47.119 44.1283C45.5508 41.0772 44.7667 37.5403 44.7667 33.5175C44.7667 29.4607 45.5508 25.9153 47.119 22.8812C48.6871 19.83 50.9116 17.4607 53.7922 15.7732C56.69 14.0687 60.1246 13.2164 64.0962 13.2164C68.0678 13.2164 71.494 14.0687 74.3746 15.7732C77.2724 17.4607 79.5053 19.83 81.0735 22.8812C82.6417 25.9153 83.4258 29.4607 83.4258 33.5175C83.4258 37.5403 82.6417 41.0772 81.0735 44.1283C79.5053 47.1624 77.2724 49.5317 74.3746 51.2363C71.494 52.9238 68.0678 53.7675 64.0962 53.7675ZM64.1474 45.33C65.9542 45.33 67.4627 44.8187 68.6729 43.7959C69.8832 42.7562 70.7951 41.3414 71.4087 39.5516C72.0394 37.7619 72.3547 35.7249 72.3547 33.4408C72.3547 31.1567 72.0394 29.1198 71.4087 27.33C70.7951 25.5403 69.8832 24.1255 68.6729 23.0857C67.4627 22.0459 65.9542 21.5261 64.1474 21.5261C62.3235 21.5261 60.7894 22.0459 59.5451 23.0857C58.3178 24.1255 57.3888 25.5403 56.7582 27.33C56.1445 29.1198 55.8377 31.1567 55.8377 33.4408C55.8377 35.7249 56.1445 37.7619 56.7582 39.5516C57.3888 41.3414 58.3178 42.7562 59.5451 43.7959C60.7894 44.8187 62.3235 45.33 64.1474 45.33ZM114.253 36.2789V13.7278H125.145V53.0005H114.687V45.867H114.278C113.392 48.1681 111.918 50.0175 109.855 51.4153C107.81 52.813 105.312 53.5119 102.364 53.5119C99.7386 53.5119 97.429 52.9153 95.4346 51.7221C93.4403 50.5289 91.8807 48.8329 90.7557 46.634C89.6477 44.4351 89.0852 41.8016 89.0682 38.7334V13.7278H99.9602V36.7903C99.9772 39.1084 100.599 40.9408 101.827 42.2874C103.054 43.634 104.699 44.3073 106.761 44.3073C108.074 44.3073 109.301 44.009 110.443 43.4124C111.585 42.7988 112.506 41.8954 113.205 40.7022C113.92 39.509 114.27 38.0346 114.253 36.2789ZM132.417 53.0005V13.7278H142.977V20.58H143.386C144.102 18.1425 145.304 16.3016 146.991 15.0573C148.679 13.7959 150.622 13.1653 152.821 13.1653C153.366 13.1653 153.954 13.1994 154.585 13.2675C155.216 13.3357 155.769 13.4295 156.247 13.5488V23.2136C155.735 23.0601 155.028 22.9238 154.125 22.8045C153.221 22.6851 152.394 22.6255 151.644 22.6255C150.042 22.6255 148.61 22.9749 147.349 23.6738C146.105 24.3556 145.116 25.3101 144.383 26.5374C143.667 27.7647 143.309 29.1795 143.309 30.7817V53.0005H132.417ZM183.409 53.0005L172.722 13.7278H183.742L189.827 40.1141H190.185L196.526 13.7278H207.341L213.784 39.9607H214.117L220.1 13.7278H231.094L220.432 53.0005H208.901L202.151 28.3016H201.665L194.915 53.0005H183.409ZM252.224 53.7675C248.253 53.7675 244.818 52.9238 241.92 51.2363C239.04 49.5317 236.815 47.1624 235.247 44.1283C233.679 41.0772 232.895 37.5403 232.895 33.5175C232.895 29.4607 233.679 25.9153 235.247 22.8812C236.815 19.83 239.04 17.4607 241.92 15.7732C244.818 14.0687 248.253 13.2164 252.224 13.2164C256.196 13.2164 259.622 14.0687 262.503 15.7732C265.4 17.4607 267.633 19.83 269.202 22.8812C270.77 25.9153 271.554 29.4607 271.554 33.5175C271.554 37.5403 270.77 41.0772 269.202 44.1283C267.633 47.1624 265.4 49.5317 262.503 51.2363C259.622 52.9238 256.196 53.7675 252.224 53.7675ZM252.275 45.33C254.082 45.33 255.591 44.8187 256.801 43.7959C258.011 42.7562 258.923 41.3414 259.537 39.5516C260.168 37.7619 260.483 35.7249 260.483 33.4408C260.483 31.1567 260.168 29.1198 259.537 27.33C258.923 25.5403 258.011 24.1255 256.801 23.0857C255.591 22.0459 254.082 21.5261 252.275 21.5261C250.452 21.5261 248.918 22.0459 247.673 23.0857C246.446 24.1255 245.517 25.5403 244.886 27.33C244.273 29.1198 243.966 31.1567 243.966 33.4408C243.966 35.7249 244.273 37.7619 244.886 39.5516C245.517 41.3414 246.446 42.7562 247.673 43.7959C248.918 44.8187 250.452 45.33 252.275 45.33ZM277.196 53.0005V13.7278H287.756V20.58H288.165C288.881 18.1425 290.083 16.3016 291.77 15.0573C293.458 13.7959 295.401 13.1653 297.6 13.1653C298.145 13.1653 298.733 13.1994 299.364 13.2675C299.995 13.3357 300.549 13.4295 301.026 13.5488V23.2136C300.514 23.0601 299.807 22.9238 298.904 22.8045C298 22.6851 297.174 22.6255 296.424 22.6255C294.821 22.6255 293.389 22.9749 292.128 23.6738C290.884 24.3556 289.895 25.3101 289.162 26.5374C288.446 27.7647 288.088 29.1795 288.088 30.7817V53.0005H277.196ZM315.087 41.6994L315.112 28.634H316.697L329.277 13.7278H341.78L324.879 33.4664H322.297L315.087 41.6994ZM305.217 53.0005V0.63685H316.109V53.0005H305.217ZM329.763 53.0005L318.206 35.8954L325.467 28.1994L342.521 53.0005H329.763ZM357.522 45.8414L357.24 48.6539C357.019 50.9039 356.593 53.1454 355.962 55.3783C355.348 57.6283 354.701 59.6653 354.019 61.4891C353.354 63.313 352.817 64.7448 352.408 65.7846H345.351C345.607 64.7789 345.956 63.3726 346.399 61.5658C346.843 59.7761 347.26 57.7647 347.652 55.5317C348.044 53.2988 348.291 51.0232 348.394 48.705L348.522 45.8414H357.522ZM396.701 53.7675C392.661 53.7675 389.184 52.9494 386.269 51.313C383.372 49.6596 381.139 47.3244 379.571 44.3073C378.002 41.2732 377.218 37.6851 377.218 33.5431C377.218 29.5033 378.002 25.9579 379.571 22.9067C381.139 19.8556 383.346 17.4778 386.193 15.7732C389.056 14.0687 392.414 13.2164 396.267 13.2164C398.857 13.2164 401.269 13.634 403.502 14.4692C405.752 15.2874 407.713 16.5232 409.383 18.1766C411.071 19.83 412.383 21.9096 413.321 24.4153C414.258 26.9039 414.727 29.8187 414.727 33.1596V36.1511H381.565V29.4011H404.474C404.474 27.8329 404.133 26.4437 403.451 25.2334C402.769 24.0232 401.823 23.0772 400.613 22.3954C399.42 21.6965 398.031 21.3471 396.446 21.3471C394.792 21.3471 393.326 21.7306 392.048 22.4976C390.786 23.2476 389.798 24.2619 389.082 25.5403C388.366 26.8016 387.999 28.2079 387.982 29.759V36.1766C387.982 38.1198 388.34 39.7988 389.056 41.2136C389.789 42.6283 390.821 43.7192 392.15 44.4863C393.48 45.2533 395.056 45.6369 396.88 45.6369C398.09 45.6369 399.198 45.4664 400.204 45.1255C401.21 44.7846 402.071 44.2732 402.786 43.5914C403.502 42.9096 404.048 42.0744 404.423 41.0857L414.497 41.7505C413.985 44.1709 412.937 46.2846 411.352 48.0914C409.784 49.8812 407.755 51.2789 405.267 52.2846C402.795 53.2732 399.94 53.7675 396.701 53.7675ZM455.954 13.7278L442.224 53.0005H429.951L416.221 13.7278H427.726L435.883 41.8272H436.292L444.422 13.7278H455.954ZM476.72 53.7675C472.68 53.7675 469.203 52.9494 466.288 51.313C463.39 49.6596 461.157 47.3244 459.589 44.3073C458.021 41.2732 457.237 37.6851 457.237 33.5431C457.237 29.5033 458.021 25.9579 459.589 22.9067C461.157 19.8556 463.365 17.4778 466.211 15.7732C469.075 14.0687 472.433 13.2164 476.285 13.2164C478.876 13.2164 481.288 13.634 483.521 14.4692C485.771 15.2874 487.731 16.5232 489.401 18.1766C491.089 19.83 492.401 21.9096 493.339 24.4153C494.276 26.9039 494.745 29.8187 494.745 33.1596V36.1511H461.583V29.4011H484.492C484.492 27.8329 484.151 26.4437 483.47 25.2334C482.788 24.0232 481.842 23.0772 480.632 22.3954C479.438 21.6965 478.049 21.3471 476.464 21.3471C474.811 21.3471 473.345 21.7306 472.066 22.4976C470.805 23.2476 469.816 24.2619 469.1 25.5403C468.384 26.8016 468.018 28.2079 468.001 29.759V36.1766C468.001 38.1198 468.359 39.7988 469.075 41.2136C469.808 42.6283 470.839 43.7192 472.168 44.4863C473.498 45.2533 475.075 45.6369 476.899 45.6369C478.109 45.6369 479.217 45.4664 480.222 45.1255C481.228 44.7846 482.089 44.2732 482.805 43.5914C483.521 42.9096 484.066 42.0744 484.441 41.0857L494.515 41.7505C494.004 44.1709 492.955 46.2846 491.37 48.0914C489.802 49.8812 487.774 51.2789 485.285 52.2846C482.813 53.2732 479.958 53.7675 476.72 53.7675ZM500.413 53.0005V13.7278H510.973V20.58H511.382C512.098 18.1425 513.3 16.3016 514.987 15.0573C516.675 13.7959 518.618 13.1653 520.817 13.1653C521.362 13.1653 521.95 13.1994 522.581 13.2675C523.211 13.3357 523.765 13.4295 524.243 13.5488V23.2136C523.731 23.0601 523.024 22.9238 522.121 22.8045C521.217 22.6851 520.39 22.6255 519.64 22.6255C518.038 22.6255 516.606 22.9749 515.345 23.6738C514.101 24.3556 513.112 25.3101 512.379 26.5374C511.663 27.7647 511.305 29.1795 511.305 30.7817V53.0005H500.413ZM536.354 67.7278C534.973 67.7278 533.678 67.617 532.467 67.3954C531.274 67.1908 530.286 66.9266 529.502 66.6028L531.956 58.4721C533.235 58.8641 534.385 59.0772 535.408 59.1113C536.448 59.1454 537.342 58.9067 538.092 58.3954C538.86 57.884 539.482 57.0147 539.959 55.7874L540.598 54.1255L526.51 13.7278H537.965L546.095 42.5687H546.504L554.712 13.7278H566.243L550.979 57.2448C550.246 59.3584 549.249 61.1994 547.987 62.7675C546.743 64.3528 545.166 65.5715 543.257 66.4238C541.348 67.2931 539.047 67.7278 536.354 67.7278ZM578.124 53.0005L567.437 13.7278H578.456L584.542 40.1141H584.9L591.241 13.7278H602.056L608.499 39.9607H608.831L614.814 13.7278H625.809L615.147 53.0005H603.616L596.866 28.3016H596.38L589.63 53.0005H578.124ZM641.071 30.2959V53.0005H630.179V0.63685H640.764V20.6567H641.225C642.111 18.3386 643.543 16.5232 645.52 15.2107C647.497 13.8812 649.977 13.2164 652.96 13.2164C655.688 13.2164 658.065 13.813 660.094 15.0062C662.139 16.1823 663.725 17.8783 664.85 20.0942C665.992 22.2931 666.554 24.9266 666.537 27.9948V53.0005H655.645V29.938C655.662 27.5175 655.048 25.634 653.804 24.2874C652.577 22.9408 650.855 22.2675 648.639 22.2675C647.156 22.2675 645.844 22.5829 644.702 23.2136C643.577 23.8442 642.69 24.7647 642.043 25.9749C641.412 27.1681 641.088 28.6084 641.071 30.2959ZM691.567 53.7675C687.527 53.7675 684.049 52.9494 681.135 51.313C678.237 49.6596 676.004 47.3244 674.436 44.3073C672.868 41.2732 672.084 37.6851 672.084 33.5431C672.084 29.5033 672.868 25.9579 674.436 22.9067C676.004 19.8556 678.211 17.4778 681.058 15.7732C683.922 14.0687 687.28 13.2164 691.132 13.2164C693.723 13.2164 696.135 13.634 698.368 14.4692C700.618 15.2874 702.578 16.5232 704.248 18.1766C705.936 19.83 707.248 21.9096 708.186 24.4153C709.123 26.9039 709.592 29.8187 709.592 33.1596V36.1511H676.43V29.4011H699.339C699.339 27.8329 698.998 26.4437 698.317 25.2334C697.635 24.0232 696.689 23.0772 695.478 22.3954C694.285 21.6965 692.896 21.3471 691.311 21.3471C689.657 21.3471 688.192 21.7306 686.913 22.4976C685.652 23.2476 684.663 24.2619 683.947 25.5403C683.231 26.8016 682.865 28.2079 682.848 29.759V36.1766C682.848 38.1198 683.206 39.7988 683.922 41.2136C684.655 42.6283 685.686 43.7192 687.015 44.4863C688.345 45.2533 689.922 45.6369 691.745 45.6369C692.956 45.6369 694.064 45.4664 695.069 45.1255C696.075 44.7846 696.936 44.2732 697.652 43.5914C698.368 42.9096 698.913 42.0744 699.288 41.0857L709.362 41.7505C708.851 44.1709 707.802 46.2846 706.217 48.0914C704.649 49.8812 702.621 51.2789 700.132 52.2846C697.66 53.2732 694.805 53.7675 691.567 53.7675ZM715.26 53.0005V13.7278H725.82V20.58H726.229C726.945 18.1425 728.146 16.3016 729.834 15.0573C731.521 13.7959 733.465 13.1653 735.663 13.1653C736.209 13.1653 736.797 13.1994 737.428 13.2675C738.058 13.3357 738.612 13.4295 739.09 13.5488V23.2136C738.578 23.0601 737.871 22.9238 736.967 22.8045C736.064 22.6851 735.237 22.6255 734.487 22.6255C732.885 22.6255 731.453 22.9749 730.192 23.6738C728.948 24.3556 727.959 25.3101 727.226 26.5374C726.51 27.7647 726.152 29.1795 726.152 30.7817V53.0005H715.26ZM759.351 53.7675C755.311 53.7675 751.834 52.9494 748.919 51.313C746.021 49.6596 743.788 47.3244 742.22 44.3073C740.652 41.2732 739.868 37.6851 739.868 33.5431C739.868 29.5033 740.652 25.9579 742.22 22.9067C743.788 19.8556 745.995 17.4778 748.842 15.7732C751.706 14.0687 755.064 13.2164 758.916 13.2164C761.507 13.2164 763.919 13.634 766.152 14.4692C768.402 15.2874 770.362 16.5232 772.032 18.1766C773.72 19.83 775.032 21.9096 775.97 24.4153C776.907 26.9039 777.376 29.8187 777.376 33.1596V36.1511H744.214V29.4011H767.123C767.123 27.8329 766.782 26.4437 766.101 25.2334C765.419 24.0232 764.473 23.0772 763.263 22.3954C762.069 21.6965 760.68 21.3471 759.095 21.3471C757.441 21.3471 755.976 21.7306 754.697 22.4976C753.436 23.2476 752.447 24.2619 751.731 25.5403C751.015 26.8016 750.649 28.2079 750.632 29.759V36.1766C750.632 38.1198 750.99 39.7988 751.706 41.2136C752.439 42.6283 753.47 43.7192 754.799 44.4863C756.129 45.2533 757.706 45.6369 759.53 45.6369C760.74 45.6369 761.848 45.4664 762.853 45.1255C763.859 44.7846 764.72 44.2732 765.436 43.5914C766.152 42.9096 766.697 42.0744 767.072 41.0857L777.146 41.7505C776.635 44.1709 775.586 46.2846 774.001 48.0914C772.433 49.8812 770.405 51.2789 767.916 52.2846C765.444 53.2732 762.589 53.7675 759.351 53.7675ZM804.993 67.7278C803.612 67.7278 802.316 67.617 801.106 67.3954C799.913 67.1908 798.924 66.9266 798.14 66.6028L800.595 58.4721C801.873 58.8641 803.024 59.0772 804.047 59.1113C805.086 59.1454 805.981 58.9067 806.731 58.3954C807.498 57.884 808.12 57.0147 808.598 55.7874L809.237 54.1255L795.149 13.7278H806.603L814.734 42.5687H815.143L823.351 13.7278H834.882L819.618 57.2448C818.885 59.3584 817.887 61.1994 816.626 62.7675C815.382 64.3528 813.805 65.5715 811.896 66.4238C809.987 67.2931 807.686 67.7278 804.993 67.7278ZM855.494 53.7675C851.523 53.7675 848.088 52.9238 845.19 51.2363C842.31 49.5317 840.085 47.1624 838.517 44.1283C836.949 41.0772 836.165 37.5403 836.165 33.5175C836.165 29.4607 836.949 25.9153 838.517 22.8812C840.085 19.83 842.31 17.4607 845.19 15.7732C848.088 14.0687 851.523 13.2164 855.494 13.2164C859.466 13.2164 862.892 14.0687 865.773 15.7732C868.67 17.4607 870.903 19.83 872.472 22.8812C874.04 25.9153 874.824 29.4607 874.824 33.5175C874.824 37.5403 874.04 41.0772 872.472 44.1283C870.903 47.1624 868.67 49.5317 865.773 51.2363C862.892 52.9238 859.466 53.7675 855.494 53.7675ZM855.545 45.33C857.352 45.33 858.861 44.8187 860.071 43.7959C861.281 42.7562 862.193 41.3414 862.807 39.5516C863.438 37.7619 863.753 35.7249 863.753 33.4408C863.753 31.1567 863.438 29.1198 862.807 27.33C862.193 25.5403 861.281 24.1255 860.071 23.0857C858.861 22.0459 857.352 21.5261 855.545 21.5261C853.722 21.5261 852.188 22.0459 850.943 23.0857C849.716 24.1255 848.787 25.5403 848.156 27.33C847.543 29.1198 847.236 31.1567 847.236 33.4408C847.236 35.7249 847.543 37.7619 848.156 39.5516C848.787 41.3414 849.716 42.7562 850.943 43.7959C852.188 44.8187 853.722 45.33 855.545 45.33ZM905.651 36.2789V13.7278H916.543V53.0005H906.086V45.867H905.677C904.79 48.1681 903.316 50.0175 901.253 51.4153C899.208 52.813 896.711 53.5119 893.762 53.5119C891.137 53.5119 888.827 52.9153 886.833 51.7221C884.838 50.5289 883.279 48.8329 882.154 46.634C881.046 44.4351 880.483 41.8016 880.466 38.7334V13.7278H891.358V36.7903C891.375 39.1084 891.998 40.9408 893.225 42.2874C894.452 43.634 896.097 44.3073 898.159 44.3073C899.472 44.3073 900.699 44.009 901.841 43.4124C902.983 42.7988 903.904 41.8954 904.603 40.7022C905.319 39.509 905.668 38.0346 905.651 36.2789ZM950.238 53.742C947.733 53.742 945.5 53.3073 943.539 52.438C941.579 51.5516 940.028 50.2476 938.886 48.5261C937.761 46.7874 937.198 44.6226 937.198 42.0317C937.198 39.8499 937.599 38.0175 938.4 36.5346C939.201 35.0516 940.292 33.8584 941.673 32.955C943.054 32.0516 944.622 31.3698 946.377 30.9096C948.15 30.4494 950.008 30.1255 951.951 29.938C954.235 29.6994 956.076 29.4778 957.474 29.2732C958.872 29.0516 959.886 28.7278 960.517 28.3016C961.147 27.8755 961.463 27.2448 961.463 26.4096V26.2562C961.463 24.6369 960.951 23.384 959.929 22.4976C958.923 21.6113 957.491 21.1681 955.633 21.1681C953.673 21.1681 952.113 21.6028 950.954 22.4721C949.795 23.3244 949.028 24.3982 948.653 25.6937L938.579 24.8755C939.091 22.4891 940.096 20.4266 941.596 18.688C943.096 16.9323 945.031 15.5857 947.4 14.6482C949.787 13.6937 952.548 13.2164 955.684 13.2164C957.866 13.2164 959.954 13.4721 961.948 13.9834C963.96 14.4948 965.741 15.2874 967.292 16.3613C968.86 17.4351 970.096 18.8158 971 20.5033C971.903 22.1738 972.355 24.1766 972.355 26.5119V53.0005H962.025V47.5545H961.718C961.088 48.7817 960.244 49.8641 959.187 50.8016C958.13 51.7221 956.86 52.4465 955.377 52.9749C953.895 53.4863 952.181 53.742 950.238 53.742ZM953.358 46.2249C954.96 46.2249 956.375 45.9096 957.602 45.2789C958.829 44.6312 959.792 43.7619 960.491 42.6709C961.19 41.58 961.539 40.3442 961.539 38.9636V34.7959C961.198 35.0175 960.73 35.2221 960.133 35.4096C959.554 35.58 958.897 35.742 958.164 35.8954C957.431 36.0317 956.698 36.1596 955.966 36.2789C955.233 36.3812 954.568 36.4749 953.971 36.5601C952.693 36.7476 951.576 37.0459 950.622 37.455C949.667 37.8641 948.926 38.4181 948.397 39.117C947.869 39.7988 947.605 40.6511 947.605 41.6738C947.605 43.1567 948.142 44.2903 949.216 45.0744C950.306 45.8414 951.687 46.2249 953.358 46.2249ZM979.365 53.0005V13.7278H989.925V20.58H990.334C991.05 18.1425 992.251 16.3016 993.939 15.0573C995.626 13.7959 997.57 13.1653 999.768 13.1653C1000.31 13.1653 1000.9 13.1994 1001.53 13.2675C1002.16 13.3357 1002.72 13.4295 1003.19 13.5488V23.2136C1002.68 23.0601 1001.98 22.9238 1001.07 22.8045C1000.17 22.6851 999.342 22.6255 998.592 22.6255C996.99 22.6255 995.558 22.9749 994.297 23.6738C993.053 24.3556 992.064 25.3101 991.331 26.5374C990.615 27.7647 990.257 29.1795 990.257 30.7817V53.0005H979.365ZM1023.46 53.7675C1019.42 53.7675 1015.94 52.9494 1013.02 51.313C1010.13 49.6596 1007.89 47.3244 1006.32 44.3073C1004.76 41.2732 1003.97 37.6851 1003.97 33.5431C1003.97 29.5033 1004.76 25.9579 1006.32 22.9067C1007.89 19.8556 1010.1 17.4778 1012.95 15.7732C1015.81 14.0687 1019.17 13.2164 1023.02 13.2164C1025.61 13.2164 1028.02 13.634 1030.26 14.4692C1032.51 15.2874 1034.47 16.5232 1036.14 18.1766C1037.82 19.83 1039.14 21.9096 1040.07 24.4153C1041.01 26.9039 1041.48 29.8187 1041.48 33.1596V36.1511H1008.32V29.4011H1031.23C1031.23 27.8329 1030.89 26.4437 1030.21 25.2334C1029.52 24.0232 1028.58 23.0772 1027.37 22.3954C1026.17 21.6965 1024.79 21.3471 1023.2 21.3471C1021.55 21.3471 1020.08 21.7306 1018.8 22.4976C1017.54 23.2476 1016.55 24.2619 1015.84 25.5403C1015.12 26.8016 1014.75 28.2079 1014.74 29.759V36.1766C1014.74 38.1198 1015.09 39.7988 1015.81 41.2136C1016.54 42.6283 1017.57 43.7192 1018.9 44.4863C1020.23 45.2533 1021.81 45.6369 1023.63 45.6369C1024.84 45.6369 1025.95 45.4664 1026.96 45.1255C1027.96 44.7846 1028.82 44.2732 1029.54 43.5914C1030.26 42.9096 1030.8 42.0744 1031.18 41.0857L1041.25 41.7505C1040.74 44.1709 1039.69 46.2846 1038.11 48.0914C1036.54 49.8812 1034.51 51.2789 1032.02 52.2846C1029.55 53.2732 1026.69 53.7675 1023.46 53.7675Z" fill="white"/>
</svg>
